#define moon_width 32
#define moon_height 32
static char moon_bits[] = {
  0x00, 0x00, 0x00, 0x00, 0x00, 0x00, 0x00, 0x00, 0x00, 0x60, 0x00, 0x00, 
  0x00, 0x78, 0x00, 0x00, 0x00, 0x3E, 0x00, 0x00, 0x00, 0x3F, 0x00, 0x00, 
  0x80, 0x1B, 0x00, 0x00, 0xC0, 0x19, 0x00, 0x00, 0xE0, 0x1C, 0x00, 0x00, 
  0x60, 0x0C, 0x00, 0x00, 0x70, 0x0C, 0x00, 0x00, 0x30, 0x0C, 0x00, 0x00, 
  0x30, 0x0C, 0x00, 0x00, 0x38, 0x1C, 0x00, 0x00, 0x18, 0x18, 0x00, 0x00, 
  0x18, 0x38, 0x00, 0x00, 0x18, 0x30, 0x00, 0x00, 0x18, 0x70, 0x00, 0x00, 
  0x38, 0xE0, 0x01, 0x18, 0x30, 0xC0, 0x87, 0x1F, 0x70, 0x00, 0xFF, 0x1F, 
  0x60, 0x00, 0xFC, 0x0C, 0xE0, 0x00, 0x00, 0x0E, 0xC0, 0x01, 0x00, 0x07, 
  0x80, 0x03, 0x80, 0x03, 0x00, 0x0F, 0xE0, 0x01, 0x00, 0x3E, 0xFC, 0x00, 
  0x00, 0xF8, 0x3F, 0x00, 0x00, 0xE0, 0x07, 0x00, 0x00, 0x00, 0x00, 0x00, 
  0x00, 0x00, 0x00, 0x00, 0x00, 0x00, 0x00, 0x00, };
