#define sun_width 32
#define sun_height 32
static char sun_bits[] = {
  0x00, 0x00, 0x00, 0x00, 0x00, 0x00, 0x00, 0x00, 0x00, 0x00, 0x00, 0x00, 
  0x00, 0x00, 0x00, 0x00, 0x00, 0x80, 0x01, 0x00, 0x00, 0x80, 0x01, 0x00, 
  0x00, 0x80, 0x01, 0x00, 0x00, 0x80, 0x01, 0x00, 0x00, 0x83, 0xC1, 0x00, 
  0x00, 0x07, 0xE0, 0x00, 0x00, 0xE6, 0x67, 0x00, 0x00, 0xF0, 0x0F, 0x00, 
  0x00, 0x38, 0x1C, 0x00, 0x00, 0x1C, 0x38, 0x00, 0x00, 0x0C, 0x30, 0x00, 
  0xF0, 0x0D, 0xB0, 0x0F, 0xF0, 0x0D, 0xB0, 0x0F, 0x00, 0x0C, 0x30, 0x00, 
  0x00, 0x1C, 0x38, 0x00, 0x00, 0x38, 0x1C, 0x00, 0x00, 0xF0, 0x0F, 0x00, 
  0x00, 0xE6, 0x67, 0x00, 0x00, 0x07, 0xE0, 0x00, 0x00, 0x83, 0xC1, 0x00, 
  0x00, 0x80, 0x01, 0x00, 0x00, 0x80, 0x01, 0x00, 0x00, 0x80, 0x01, 0x00, 
  0x00, 0x80, 0x01, 0x00, 0x00, 0x00, 0x00, 0x00, 0x00, 0x00, 0x00, 0x00, 
  0x00, 0x00, 0x00, 0x00, 0x00, 0x00, 0x00, 0x00, };
