#define clouds_width 16
#define clouds_height 16
static char clouds_bits[] = {
  0x00, 0x00, 0x00, 0x00, 0x00, 0x0F, 0x80, 0x10, 0xC0, 0x23, 0x20, 0x44, 
  0x20, 0x88, 0x18, 0x90, 0x04, 0xA0, 0x02, 0x60, 0x02, 0x20, 0x04, 0x10, 
  0xF8, 0x0F, 0x00, 0x00, 0x00, 0x00, 0x00, 0x00, };
