#define cloud_moon_width 16
#define cloud_moon_height 16
static char cloud_moon_bits[] = {
  0x00, 0x00, 0x00, 0x38, 0x00, 0x24, 0x00, 0x12, 0xC0, 0x13, 0x20, 0xE4, 
  0x20, 0x88, 0x18, 0x50, 0x04, 0x20, 0x02, 0x20, 0x02, 0x20, 0x04, 0x10, 
  0xF8, 0x0F, 0x00, 0x00, 0x00, 0x00, 0x00, 0x00, };
