#define cloud_wind_width 16
#define cloud_wind_height 16
static char cloud_wind_bits[] = {
  0x00, 0x00, 0x00, 0x00, 0x00, 0x00, 0x00, 0x00, 0xC0, 0x03, 0x20, 0x04, 
  0x20, 0x08, 0x18, 0x10, 0x04, 0x20, 0x00, 0x20, 0xFE, 0x27, 0x00, 0x10, 
  0xFF, 0x0B, 0x00, 0x00, 0xFC, 0x0F, 0x00, 0x00, };
