#define lightning_width 16
#define lightning_height 16
static char lightning_bits[] = {
  0x00, 0x00, 0x00, 0x00, 0x00, 0x00, 0x00, 0x00, 0xC0, 0x03, 0x20, 0x04, 
  0x20, 0x08, 0x18, 0x10, 0x04, 0x20, 0x02, 0x20, 0x82, 0x23, 0x84, 0x11, 
  0xB8, 0x0D, 0x00, 0x01, 0x80, 0x00, 0x80, 0x00, };
