#define rain0_sun_width 16
#define rain0_sun_height 16
static char rain0_sun_bits[] = {
  0x00, 0x00, 0x00, 0x08, 0x00, 0x5D, 0x00, 0x22, 0xC0, 0x43, 0x20, 0xC4, 
  0x20, 0x48, 0x18, 0x30, 0x04, 0x20, 0x02, 0x20, 0x42, 0x21, 0x44, 0x11, 
  0x08, 0x0C, 0xA0, 0x00, 0x80, 0x00, 0x00, 0x00, };
