#define rain2_width 16
#define rain2_height 16
static char rain2_bits[] = {
  0x00, 0x00, 0x00, 0x00, 0x00, 0x00, 0x00, 0x00, 0xC0, 0x03, 0x20, 0x04, 
  0x20, 0x08, 0x18, 0x10, 0x04, 0x20, 0x02, 0x20, 0xA2, 0x2A, 0x94, 0x0A, 
  0x50, 0x0A, 0x50, 0x09, 0x40, 0x01, 0x00, 0x00, };
