#define rain1_moon_width 16
#define rain1_moon_height 16
static char rain1_moon_bits[] = {
  0x00, 0x00, 0x00, 0x38, 0x00, 0x24, 0x00, 0x12, 0xC0, 0x13, 0x20, 0xE4, 
  0x20, 0x88, 0x18, 0x50, 0x04, 0x20, 0x02, 0x20, 0x42, 0x21, 0x44, 0x11, 
  0x28, 0x0D, 0xA0, 0x00, 0x80, 0x00, 0x00, 0x00, };
