#define rain_lightning_width 16
#define rain_lightning_height 16
static char rain_lightning_bits[] = {
  0x00, 0x00, 0x00, 0x00, 0x00, 0x00, 0x00, 0x00, 0xC0, 0x03, 0x20, 0x04, 
  0x20, 0x08, 0x18, 0x10, 0x04, 0x20, 0x02, 0x20, 0xA2, 0x2E, 0x94, 0x06, 
  0x50, 0x06, 0x50, 0x04, 0x40, 0x02, 0x00, 0x02, };
