#define rain_snow_width 16
#define rain_snow_height 16
static char rain_snow_bits[] = {
  0x00, 0x00, 0x00, 0x00, 0x00, 0x00, 0x00, 0x00, 0xC0, 0x03, 0x20, 0x04, 
  0x20, 0x08, 0x18, 0x10, 0x04, 0x20, 0x02, 0x20, 0xA2, 0x24, 0x94, 0x0A, 
  0x50, 0x04, 0x50, 0x02, 0x40, 0x05, 0x00, 0x02, };
