#define sun_width 16
#define sun_height 16
static char sun_bits[] = {
  0x00, 0x00, 0x00, 0x01, 0x00, 0x01, 0x08, 0x21, 0x10, 0x10, 0x80, 0x03, 
  0x40, 0x04, 0x20, 0x08, 0x2E, 0xE8, 0x20, 0x08, 0x40, 0x04, 0x80, 0x03, 
  0x10, 0x10, 0x08, 0x21, 0x00, 0x01, 0x00, 0x01, };
