#define wind_width 16
#define wind_height 16
static char wind_bits[] = {
  0x00, 0x00, 0x00, 0x00, 0x00, 0x04, 0x00, 0x08, 0x00, 0x28, 0xFC, 0x47, 
  0x00, 0x40, 0xFE, 0x3F, 0x00, 0x00, 0xFC, 0x0F, 0x00, 0x10, 0x00, 0x10, 
  0x00, 0x08, 0x00, 0x00, 0x00, 0x00, 0x00, 0x00, };
